<?xml version="1.0"?>
<svg width="1280" height="886" xmlns="http://www.w3.org/2000/svg" xmlns:svg="http://www.w3.org/2000/svg" preserveAspectRatio="xMidYMid meet" version="1.0">
 <metadata>Created by potrace 1.15, written by Peter Selinger 2001-2017</metadata>
 <g class="layer">
  <title>Layer 1</title>
  <g fill="#000000" id="svg_1" transform="matrix(0.1 0 0 -0.1 0 0)">
   <path d="m8160,-7c-469,-20 -930,-69 -1307,-138c-496,-92 -946,-261 -1434,-540c-208,-120 -566,-362 -879,-595c-157,-117 -449,-322 -650,-456c-532,-354 -717,-489 -968,-707c-134,-117 -367,-347 -442,-437c-41,-50 -30,-43 140,86c1226,929 2445,1535 3790,1883c518,134 1107,226 1740,273c235,17 1094,17 1340,0c484,-34 923,-86 1350,-159l265,-45l440,-8c477,-8 514,-12 700,-74c152,-51 363,-168 493,-273c24,-20 45,-33 47,-31c9,8 -123,164 -176,209c-122,103 -238,167 -486,270c-81,33 -201,85 -267,115c-796,365 -1745,571 -2866,624c-185,9 -663,11 -830,3z" fill="#ffffff" id="svg_2"/>
   <path d="m8550,-721c-967,-33 -1870,-183 -2740,-456c-259,-81 -271,-85 -267,-90c3,-2 33,1 68,6c108,17 502,59 749,80c478,41 805,54 1335,54c864,1 1188,-30 2335,-219c543,-90 833,-135 837,-130c2,2 -25,11 -59,21c-228,63 -558,185 -667,247c-80,45 -136,92 -151,128c-11,28 -11,34 7,58c48,65 203,115 468,152c83,11 175,24 205,28c51,7 42,9 -130,30c-405,49 -787,77 -1240,92c-323,11 -414,11 -750,-1z" fill="#ffffff" id="svg_3"/>
   <path d="m6915,-1231c-876,-51 -1648,-241 -2490,-611c-308,-136 -907,-450 -1230,-646c-275,-167 -744,-486 -732,-498c1,-1 69,31 149,72c294,149 771,349 1211,508c1715,619 3546,865 5532,741c281,-18 721,-57 955,-86c122,-15 274,-22 585,-29c530,-12 655,-25 825,-84c80,-28 124,-53 189,-104c40,-33 43,-34 36,-11c-39,121 -261,220 -726,323c-189,42 -833,163 -1177,220c-534,90 -1066,149 -1777,197c-209,14 -1157,20 -1350,8z" fill="#ffffff" id="svg_4"/>
   <path d="m7785,-1726c-33,-2 -145,-8 -250,-14c-536,-31 -1040,-95 -1540,-195c-286,-57 -753,-175 -778,-195c-4,-4 64,-10 153,-13c625,-26 1394,-142 2350,-353c552,-123 964,-235 1353,-370c55,-19 101,-34 103,-34c3,0 -21,22 -53,49c-140,118 -222,227 -244,325c-58,262 392,528 1127,666c250,47 247,45 99,58c-648,59 -950,73 -1635,76c-344,2 -652,2 -685,0z" fill="#ffffff" id="svg_5"/>
   <path d="m2600,-2289c-42,-13 -84,-38 -109,-65c-14,-14 -30,-26 -36,-26c-16,0 -47,-36 -80,-95c-15,-27 -44,-69 -62,-94c-43,-56 -79,-127 -88,-172c-3,-19 1,-99 11,-179c12,-112 15,-186 10,-325c-9,-234 -13,-225 155,-325c137,-83 215,-140 299,-222c41,-39 110,-83 265,-167c414,-225 679,-382 820,-487c218,-163 297,-194 377,-147c45,26 46,53 6,99c-67,77 -196,149 -688,387c-85,41 -202,106 -260,144c-216,143 -538,421 -607,523c-23,36 -59,85 -78,110c-52,67 -122,214 -145,304c-60,238 10,452 226,685c50,54 53,61 33,60c-13,0 -35,-4 -49,-8z" fill="#ffffff" id="svg_6"/>
   <path d="m5089,-2300c-362,-20 -575,-61 -1109,-215c-140,-40 -361,-103 -491,-139c-349,-97 -565,-174 -752,-267c-91,-46 -200,-109 -195,-114c2,-2 39,5 83,16c440,106 1008,200 1500,248c1319,131 2676,54 4215,-239c255,-48 236,-45 530,-75c447,-46 626,-90 779,-190c30,-20 56,-33 58,-31c9,8 -34,69 -74,107c-156,148 -392,231 -1108,389c-176,39 -417,97 -535,130c-1000,276 -2113,422 -2901,380z" fill="#ffffff" id="svg_7"/>
   <path d="m5440,-2786c-268,-8 -800,-51 -816,-67c-2,-2 58,-9 134,-16c443,-38 984,-155 1342,-288c177,-66 364,-154 740,-348c373,-193 839,-419 847,-412c2,2 -15,26 -38,53c-22,27 -56,80 -75,119c-75,154 -28,282 151,410c163,117 428,207 678,231c37,4 65,9 63,11c-23,23 -1022,178 -1466,227c-542,61 -1143,92 -1560,80z" fill="#ffffff" id="svg_8"/>
   <path d="m3405,-3001c-188,-10 -312,-25 -484,-55c-118,-22 -336,-75 -347,-86c-1,-2 228,-3 509,-3c519,0 614,-4 1037,-46c940,-92 1986,-331 3090,-704c267,-90 758,-270 950,-349c47,-19 87,-32 90,-29c12,12 -77,73 -172,120c-146,72 -616,284 -793,358c-82,34 -233,91 -335,125c-235,80 -333,122 -660,280c-533,258 -748,321 -1249,365c-305,27 -1321,42 -1636,24z" fill="#ffffff" id="svg_9"/>
   <path d="m3015,-3241c-126,-3 -257,-7 -289,-8c-33,0 -57,-3 -55,-6c3,-2 59,-12 125,-20c1876,-240 3060,-879 3574,-1930c176,-359 267,-732 289,-1179l8,-155l68,-76c184,-206 469,-437 728,-591c376,-224 762,-367 1452,-538c638,-158 1066,-212 1600,-203c396,6 552,28 900,127c489,139 756,270 951,464c164,164 239,319 251,516c11,200 -61,377 -183,449c-19,11 -34,19 -34,17c0,-2 14,-33 30,-70c58,-128 74,-250 45,-359c-67,-256 -335,-477 -785,-647c-345,-131 -711,-202 -1265,-246c-296,-23 -851,-15 -1075,15c-419,58 -698,150 -1180,390c-423,211 -635,357 -770,533c-227,293 -395,679 -473,1088c-30,158 -32,510 -3,640c48,222 152,420 292,557c83,80 341,230 456,265c21,6 38,14 38,17c0,3 -79,39 -176,79c-1485,619 -3025,916 -4519,871z" fill="#ffffff" id="svg_10"/>
   <path d="m2622,-3330c36,-64 156,-221 236,-309c157,-173 386,-331 702,-482c290,-140 407,-201 502,-261c92,-59 158,-127 158,-163c0,-35 -40,-72 -92,-85c-49,-13 -89,-60 -201,-236c-34,-54 -119,-175 -187,-269c-318,-435 -456,-722 -380,-790c35,-32 112,-31 251,3c854,210 1625,199 2264,-33c226,-82 513,-230 694,-359c36,-25 66,-45 67,-43c2,1 -2,52 -7,112c-128,1428 -1077,2344 -2879,2778c-264,64 -979,177 -1118,177l-33,0l23,-40z" fill="#ffffff" id="svg_11"/>
   <path d="m2971,-4049c193,-275 289,-460 370,-710c91,-284 93,-506 7,-866c-48,-201 -56,-317 -24,-341c23,-16 76,-19 76,-4c0,6 -9,10 -19,10c-11,0 -29,12 -40,26c-74,94 41,340 372,797c173,240 257,373 257,409c0,80 -360,365 -678,537c-62,34 -127,67 -145,75c-18,8 -68,30 -111,50c-65,30 -77,33 -65,17z" fill="#ffffff" id="svg_12"/>
   <path d="m10235,-4440c-66,-5 -281,-16 -477,-24c-436,-19 -624,-38 -1063,-107c-104,-17 -282,-41 -395,-55c-341,-40 -436,-57 -809,-145c-165,-39 -406,-89 -428,-89c-5,0 -44,-142 -40,-146c2,-2 26,0 53,5c99,19 645,102 859,131c455,61 951,114 1350,145c149,12 267,28 405,55c107,21 267,46 355,55c88,9 239,25 335,37c223,26 497,28 655,4c176,-27 283,-57 510,-141c45,-17 -63,78 -120,105c-79,38 -429,135 -558,155c-121,19 -460,27 -632,15z" fill="#ffffff" id="svg_13"/>
   <path d="m1129,-4582c-46,-34 -127,-105 -180,-158c-102,-102 -241,-261 -234,-269c3,-2 24,18 47,45c89,103 217,230 323,319c163,137 184,166 44,63z" fill="#ffffff" id="svg_14"/>
   <path d="m1158,-4615c-119,-92 -266,-231 -356,-337c-68,-82 -79,-114 -49,-145c22,-22 100,39 142,111c56,96 145,210 261,334c58,61 104,112 102,112c-2,0 -47,-34 -100,-75z" fill="#ffffff" id="svg_15"/>
   <path d="m1865,-4684c-186,-64 -329,-131 -465,-220c-101,-65 -141,-86 -167,-86c-62,0 -54,48 29,157c26,35 45,63 42,63c-3,0 -40,-23 -82,-52c-77,-52 -237,-203 -282,-267c-25,-36 -22,-35 45,9c22,15 72,41 110,59l70,32l-70,-72c-38,-39 -61,-69 -50,-65c70,26 167,38 270,33c130,-6 417,-74 580,-138c195,-76 320,-184 470,-406c49,-73 91,-133 94,-133c16,0 122,68 115,73c-5,2 -42,15 -82,27c-117,34 -141,76 -76,135l36,33l-54,20c-29,11 -73,25 -96,32c-24,6 -60,26 -79,44c-31,28 -35,37 -29,61c11,42 66,90 135,116c33,13 57,27 53,31c-18,18 -164,30 -292,24c-138,-6 -177,1 -188,33c-2,7 26,42 63,78l68,65l-54,-6c-324,-34 -379,-31 -379,16c1,61 143,191 327,298c83,49 68,50 -62,6z" fill="#ffffff" id="svg_16"/>
   <path d="m9175,-4846c-378,-18 -718,-46 -1195,-100c-349,-38 -961,-123 -973,-133c-8,-8 -23,-171 -15,-171c3,0 135,16 294,35c369,45 895,98 1234,125c356,27 420,35 552,70c62,16 154,36 204,44c375,65 1065,60 1509,-10l40,-7l-29,31c-58,62 -191,89 -505,102c-238,10 -1005,19 -1116,14z" fill="#ffffff" id="svg_17"/>
   <path d="m651,-5064c-12,-18 -24,-47 -27,-64c-6,-29 -4,-31 34,-42c24,-6 51,-23 66,-41c30,-35 43,-34 105,11c34,25 41,36 41,63c0,51 -16,60 -59,31c-19,-13 -42,-24 -50,-24c-18,0 -40,30 -41,56c0,22 -18,44 -36,44c-7,0 -22,-15 -33,-34z" fill="#ffffff" id="svg_18"/>
   <path d="m498,-5062c-18,-29 -32,-67 -53,-140c-29,-107 -60,-61 -53,81c1,39 0,71 -4,71c-11,0 -46,-102 -57,-166c-5,-32 -13,-105 -17,-160c-3,-56 -10,-107 -14,-114c-14,-23 -39,-2 -51,42c-20,71 -22,23 -4,-78c9,-52 19,-94 21,-94c7,0 31,56 38,89c9,50 98,197 160,266c30,33 51,62 45,63c-12,5 -11,55 2,111c11,51 7,61 -13,29z" fill="#ffffff" id="svg_19"/>
   <path d="m982,-5107c-114,-77 -198,-171 -174,-195c11,-11 91,53 135,108c17,22 49,58 71,82c49,51 39,53 -32,5z" fill="#ffffff" id="svg_20"/>
   <path d="m1175,-5116c-16,-3 -63,-14 -103,-26c-57,-17 -80,-29 -107,-60c-53,-58 -47,-72 19,-42c48,22 156,44 156,32c0,-2 -36,-30 -80,-62c-69,-50 -80,-64 -85,-95c-4,-20 -8,-47 -11,-61c-9,-52 8,-54 89,-10c43,23 77,38 77,33c0,-5 -11,-25 -25,-45c-14,-20 -25,-38 -25,-40c0,-2 31,-2 70,0c126,7 275,-41 418,-135c144,-95 375,-294 485,-418c169,-191 297,-384 425,-640l75,-149l19,54c10,30 49,119 88,197c54,110 83,156 129,205c71,76 102,92 199,107c79,12 174,51 249,102c48,33 183,157 183,168c0,3 -19,5 -43,3c-65,-5 -89,19 -95,94c-2,32 3,90 11,127c10,51 11,65 2,55c-72,-77 -253,-305 -308,-388c-64,-97 -69,-102 -62,-65c3,22 13,50 21,63c19,28 13,28 -37,-4c-23,-14 -71,-37 -107,-51c-36,-13 -77,-32 -91,-42c-62,-43 -74,-40 -25,6c29,28 79,61 117,78c37,17 67,32 67,35c0,3 -32,13 -72,22c-154,37 -259,131 -428,383c-233,346 -351,422 -833,536c-128,30 -286,44 -362,33z" fill="#ffffff" id="svg_21"/>
   <path d="m570,-5187c-26,-9 -133,-141 -190,-236c-52,-87 -55,-95 -55,-160c0,-56 -2,-65 -12,-50c-7,9 -14,15 -16,12c-2,-2 -14,-22 -27,-43c-13,-22 -55,-78 -94,-125c-122,-152 -203,-361 -166,-431c10,-18 14,-17 97,15c164,65 250,140 329,286c54,101 79,126 167,171c81,40 114,66 137,105c20,34 40,43 40,18c0,-26 -63,-87 -145,-141c-91,-59 -134,-102 -195,-193c-84,-125 -161,-190 -304,-256c-70,-33 -71,-34 -43,-44c72,-28 124,-11 408,128c124,61 224,116 250,140c25,21 82,84 128,139c45,55 93,108 107,117c21,14 24,23 24,80c0,64 -6,75 -26,55c-14,-14 -42,-2 -49,20c-3,11 1,33 10,50c12,23 13,35 4,51c-7,13 -8,39 -4,66l7,45l-30,-17c-57,-34 -80,1 -42,63c31,50 24,56 -21,20c-47,-38 -75,-31 -73,19c1,26 -1,29 -22,25c-17,-3 -30,4 -49,27c-34,39 -98,59 -145,44zm-20,-320c0,-29 -43,-96 -71,-112c-40,-22 -63,-8 -56,35c7,43 22,63 62,80c42,19 65,17 65,-3zm-427,-469c4,-4 -2,-19 -13,-34c-11,-15 -25,-38 -30,-51c-9,-20 -10,-17 -6,19c5,54 29,86 49,66z" fill="#ffffff" id="svg_22"/>
   <path d="m971,-5276c-31,-16 -61,-40 -72,-58c-40,-66 -22,-62 74,19c83,70 83,81 -2,39z" fill="#ffffff" id="svg_23"/>
   <path d="m7690,-5280c-201,-12 -580,-40 -650,-48l-55,-7l2,-39c2,-22 4,-40 6,-42c1,-2 90,2 197,9c271,16 1411,15 1665,-1c110,-7 308,-26 440,-42c251,-30 447,-42 442,-26c-11,34 -165,74 -499,131c-357,60 -447,67 -943,70c-247,2 -520,-1 -605,-5z" fill="#ffffff" id="svg_24"/>
   <path d="m1028,-5479c-26,-17 -54,-43 -62,-60c-20,-38 -20,-41 3,-41c11,0 33,17 49,38c35,45 66,92 60,92c-2,0 -25,-13 -50,-29z" fill="#ffffff" id="svg_25"/>
   <path d="m3065,-5534c-238,-82 -352,-128 -476,-192c-128,-66 -125,-63 -92,-101l28,-33l95,34c52,18 187,69 300,114c113,44 237,90 275,103c39,12 71,22 72,23c1,1 9,30 17,64c10,45 11,62 3,61c-7,0 -106,-33 -222,-73z" fill="#ffffff" id="svg_26"/>
   <path d="m7230,-5481c-85,-4 -174,-11 -198,-14c-37,-5 -41,-9 -38,-28c3,-12 10,-53 16,-92c6,-38 22,-119 37,-179l25,-108l117,7c126,7 400,-8 551,-30c52,-8 96,-12 98,-10c2,2 -4,14 -13,28c-8,13 -18,46 -21,73c-4,39 0,57 18,89c61,104 283,193 633,254l110,19l-590,0c-324,-1 -660,-5 -745,-9z" fill="#ffffff" id="svg_27"/>
   <path d="m1088,-5517c-44,-7 -58,-37 -58,-127l0,-79l-42,-41c-65,-63 -132,-146 -116,-146c26,1 128,48 256,119c128,70 246,121 280,121c9,0 -13,-17 -50,-37c-38,-19 -68,-40 -68,-44c0,-5 20,-9 43,-9c67,0 190,-35 269,-77c81,-42 198,-149 335,-304c211,-240 318,-433 437,-784c85,-248 164,-394 276,-507c50,-50 179,-142 187,-134c2,2 -10,30 -25,62c-16,32 -37,82 -46,109c-14,41 -26,56 -68,85c-65,44 -121,114 -148,187c-19,51 -21,71 -17,163l5,105l-68,140c-217,442 -456,730 -847,1021c-194,145 -368,202 -535,177z" fill="#ffffff" id="svg_28"/>
   <path d="m3185,-5777c-194,-48 -559,-183 -542,-200c3,-2 110,14 239,37l233,42l52,57c29,31 52,59 53,64c0,7 -4,8 -35,0z" fill="#ffffff" id="svg_29"/>
   <path d="m4580,-5797c-368,-25 -636,-66 -970,-147l-135,-33l-80,-82c-136,-140 -256,-208 -418,-237c-43,-8 -91,-23 -107,-34c-64,-46 -123,-127 -190,-262c-100,-203 -125,-281 -125,-398c0,-83 4,-103 27,-153c17,-36 50,-79 84,-113c53,-50 60,-54 105,-54c36,0 54,-5 70,-21c50,-50 202,17 341,149l90,87l28,-33c35,-43 50,-93 51,-178c0,-38 3,-76 7,-86c4,-9 31,-35 60,-59l54,-42l71,23c100,32 226,96 348,179c102,69 171,124 380,306l104,90l155,52c266,89 469,118 628,89c101,-18 157,-49 280,-157c133,-115 169,-139 213,-139l37,0l22,-67c45,-142 117,-259 192,-316c29,-23 64,-30 322,-67c158,-23 290,-39 292,-37c2,2 21,46 43,98c27,64 48,99 65,110l25,15l-28,30l-29,29l-21,320c-24,366 -25,398 -10,372c15,-25 62,-47 80,-37c18,12 13,17 -101,86c-125,76 -385,201 -535,257c-387,145 -821,227 -1207,227c-231,0 -420,-32 -616,-102c-80,-29 -89,-36 -190,-137c-97,-96 -233,-201 -319,-245c-24,-12 -34,-13 -39,-4c-4,7 0,16 11,22c116,67 238,161 332,255l109,108l124,41c205,67 299,83 522,89c219,6 372,-5 598,-43c439,-74 856,-223 1211,-434l100,-59l-3,77l-3,77l-130,87c-221,149 -519,290 -785,373c-320,99 -793,153 -1140,128z" fill="#ffffff" id="svg_30"/>
   <path d="m10890,-5872c71,-27 110,-55 110,-78c0,-17 -3,-17 -62,2c-41,13 -102,21 -173,24l-110,5l53,-25c30,-15 52,-31 52,-41c0,-12 8,-14 38,-10c102,13 180,16 322,16l155,-1l-30,20c-83,55 -266,111 -363,109l-47,0l55,-21z" fill="#ffffff" id="svg_31"/>
   <path d="m11190,-5863c0,-2 22,-18 50,-36c29,-19 52,-42 56,-56c5,-21 13,-24 72,-30c37,-4 94,-11 126,-16c33,-4 61,-7 63,-5c7,6 -92,64 -144,85c-61,24 -223,66 -223,58z" fill="#ffffff" id="svg_32"/>
   <path d="m11520,-5892c45,-35 66,-65 72,-102c2,-16 19,-23 93,-37c118,-23 121,-23 104,-3c-47,57 -206,152 -284,170c-28,6 -27,5 15,-28z" fill="#ffffff" id="svg_33"/>
   <path d="m2540,-5878c0,-12 64,-72 77,-72c6,0 37,12 69,27l59,26l-45,7c-98,15 -160,20 -160,12z" fill="#ffffff" id="svg_34"/>
   <path d="m2980,-5976c-103,-43 -196,-55 -234,-30c-28,18 -56,21 -56,7c0,-13 97,-48 174,-62c57,-11 70,-10 104,5c34,16 126,117 105,116c-5,-1 -46,-17 -93,-36z" fill="#ffffff" id="svg_35"/>
   <path d="m11879,-5988c43,-40 53,-55 49,-75c-4,-22 1,-26 56,-44c34,-12 78,-28 99,-37c20,-9 37,-12 37,-8c0,15 -112,115 -165,149c-28,18 -68,39 -90,49l-40,16l54,-50z" fill="#ffffff" id="svg_36"/>
   <path d="m10403,-5983c-59,-11 -71,-27 -20,-27c17,0 46,-7 62,-16c28,-15 39,-14 147,2c65,10 114,22 110,25c-12,11 -136,29 -193,28c-30,-1 -78,-6 -106,-12z" fill="#ffffff" id="svg_37"/>
   <path d="m7103,-5992c2,-7 17,-47 32,-89l28,-76l331,-6c209,-4 412,-14 551,-27c121,-11 272,-22 335,-23c85,-3 125,-8 153,-22c47,-22 55,-16 25,19c-17,20 -63,40 -183,81c-180,60 -346,97 -545,119c-310,35 -737,49 -727,24z" fill="#ffffff" id="svg_38"/>
   <path d="m10940,-6016c-650,-57 -1173,-241 -1695,-595c-176,-119 -228,-166 -105,-92c380,226 986,418 1575,498c193,26 494,31 650,10c410,-54 720,-195 855,-387c69,-98 94,-179 94,-300c0,-54 1,-98 2,-98c11,0 97,158 113,207c35,104 22,218 -37,327c-38,72 -145,173 -237,225c-140,80 -380,148 -656,186c-110,15 -466,27 -559,19z" fill="#ffffff" id="svg_39"/>
   <path d="m10240,-6051c-31,-4 -83,-18 -115,-30l-59,-22l44,-13c44,-13 84,-5 279,52c42,13 -77,23 -149,13z" fill="#ffffff" id="svg_40"/>
   <path d="m12159,-6080c11,-25 21,-61 21,-80c0,-29 6,-39 31,-54c16,-10 57,-40 89,-67l59,-49l-16,37c-30,74 -84,145 -167,223l-37,35l20,-45z" fill="#ffffff" id="svg_41"/>
   <path d="m1739,-6103c-174,-109 -414,-307 -641,-528c-116,-114 -134,-148 -103,-195c21,-33 59,-48 171,-71c73,-15 139,-18 374,-18c358,0 790,30 790,54c-1,47 9,46 -472,46c-340,0 -484,4 -578,15l-125,15l242,6c304,8 856,49 871,64c6,5 -63,164 -82,191c-11,15 -24,12 -147,-29c-168,-58 -333,-100 -514,-132c-172,-30 -365,-54 -365,-45c0,11 274,138 425,197c133,52 427,143 463,143c42,1 46,16 14,61c-16,24 -46,62 -65,84l-35,40l-68,-33c-136,-66 -362,-199 -541,-319c-101,-67 -181,-117 -178,-113c3,5 56,53 118,106c141,121 352,280 490,368c115,73 116,75 65,124l-25,22l-84,-53z" fill="#ffffff" id="svg_42"/>
   <path d="m9959,-6161c-31,-4 -72,-15 -90,-23l-34,-14l56,-1c52,-1 143,21 164,40c11,11 -17,10 -96,-2z" fill="#ffffff" id="svg_43"/>
   <path d="m9760,-6248c-34,-16 -34,-16 -10,-20c14,-1 46,6 70,17l45,20l-35,-1c-19,0 -51,-7 -70,-16z" fill="#ffffff" id="svg_44"/>
   <path d="m9603,-6324c-45,-16 -51,-26 -17,-26c16,1 45,9 64,20c32,18 33,19 10,18c-14,0 -39,-6 -57,-12z" fill="#ffffff" id="svg_45"/>
   <path d="m9480,-6397c-25,-11 -30,-17 -18,-20c9,-2 34,5 55,16c47,25 16,28 -37,4z" fill="#ffffff" id="svg_46"/>
   <path d="m1973,-6430c-208,-53 -526,-171 -669,-249l-39,-21l60,6c181,19 485,87 690,155c160,53 155,49 122,98c-15,23 -33,41 -40,41c-6,-1 -62,-14 -124,-30z" fill="#ffffff" id="svg_47"/>
   <path d="m7397,-6570c-38,-5 -71,-11 -74,-14c-3,-2 10,-26 29,-52c18,-27 36,-52 40,-58c4,-6 32,3 70,22c77,40 157,62 221,62c109,0 -7,34 -148,44c-38,2 -101,1 -138,-4z" fill="#ffffff" id="svg_48"/>
   <path d="m6574,-6662c3,-24 13,-164 22,-313c16,-265 17,-271 42,-297c22,-24 30,-26 67,-21c55,7 139,-18 193,-57c25,-18 64,-65 96,-114c30,-47 65,-91 78,-99c13,-9 52,-23 88,-31c74,-19 108,-47 149,-122c25,-47 30,-50 148,-101c337,-145 697,-235 1113,-278c481,-49 1251,-35 1695,30c126,19 331,58 319,61c-5,2 -164,8 -354,14c-612,19 -996,59 -1450,150c-707,143 -1283,396 -1745,766c-118,95 -358,329 -415,406c-19,26 -39,48 -43,48c-5,0 -6,-19 -3,-42z" fill="#ffffff" id="svg_49"/>
   <path d="m5142,-6878c-70,-114 -90,-153 -126,-247c-61,-164 -106,-410 -106,-585c0,-90 0,-90 38,-131c20,-23 90,-84 156,-136c113,-91 206,-178 206,-194c0,-4 -12,-22 -26,-39c-15,-17 -25,-32 -23,-34c10,-9 115,-26 159,-26c48,0 49,1 55,33c4,22 0,53 -13,89c-16,45 -34,70 -91,124c-53,50 -81,85 -109,142c-35,72 -37,81 -35,160c3,97 -7,123 -67,174c-22,19 -40,42 -40,50c0,25 46,150 80,218c44,88 98,166 177,256l66,75l-34,35c-41,43 -121,98 -171,118l-36,16l-60,-98z" fill="#ffffff" id="svg_50"/>
   <path d="m7660,-6817c-110,-10 -140,-15 -140,-23c0,-12 178,-150 194,-150c6,0 17,9 23,20c34,53 222,140 304,140c16,0 29,5 29,10c0,9 -321,12 -410,3z" fill="#ffffff" id="svg_51"/>
   <path d="m5396,-7035c-109,-124 -190,-260 -235,-397l-22,-67l44,-41c58,-53 71,-85 65,-162c-9,-116 33,-209 137,-306c80,-76 109,-128 109,-204c1,-56 2,-57 26,-51c51,11 109,42 149,78c22,21 41,40 41,44c0,3 -14,12 -30,19c-40,18 -90,69 -107,110c-7,18 -18,67 -23,108c-15,119 -28,152 -76,204l-45,48l38,12c91,29 179,85 261,167c45,45 82,86 82,92c0,6 -17,36 -37,68c-20,31 -51,98 -68,147c-18,50 -37,91 -41,92c-5,1 -26,5 -46,9c-21,3 -67,25 -102,49l-65,43l-55,-62z" fill="#ffffff" id="svg_52"/>
   <path d="m12114,-7072c-46,-71 -115,-190 -112,-194c2,-2 39,19 81,46c72,46 77,51 66,72c-7,12 -9,41 -6,70c3,26 5,48 3,48c-2,0 -16,-19 -32,-42z" fill="#ffffff" id="svg_53"/>
   <path d="m8370,-7052c-47,-5 -193,-6 -325,-3c-141,3 -235,2 -230,-4c12,-11 258,-147 341,-189l62,-31l17,44c21,57 87,115 180,160c38,19 63,34 55,33c-8,0 -53,-5 -100,-10z" fill="#ffffff" id="svg_54"/>
   <path d="m3210,-7186c-30,-30 -76,-71 -102,-91c-60,-44 -58,-49 68,-149c113,-90 146,-135 152,-207c4,-49 2,-56 -39,-107c-70,-90 -357,-356 -579,-536c-83,-67 -294,-220 -313,-227c-21,-7 14,-38 77,-68c39,-18 65,-25 75,-20c9,5 33,16 53,26c21,9 47,33 59,52c20,32 174,153 299,236c126,83 228,186 320,322c58,87 195,322 204,352c11,36 -21,90 -85,140c-33,25 -59,46 -60,47c0,1 -4,46 -8,101c-7,97 -30,173 -57,182c-5,2 -34,-22 -64,-53z" fill="#ffffff" id="svg_55"/>
   <path d="m11889,-7214c-50,-39 -167,-172 -158,-180c2,-2 50,16 105,41l102,45l-5,37c-3,24 1,49 11,69c9,18 13,32 9,32c-5,0 -33,-20 -64,-44z" fill="#ffffff" id="svg_56"/>
   <path d="m11462,-7387c-100,-80 -181,-148 -179,-149c4,-4 119,26 215,56c70,21 72,23 72,55c0,37 20,90 56,146c13,22 23,39 21,39c-1,0 -84,-66 -185,-147z" fill="#ffffff" id="svg_57"/>
   <path d="m8265,-7297c22,-20 450,-204 505,-218c24,-6 25,-5 22,39c-6,70 30,117 133,175c15,9 -4,9 -80,4c-115,-9 -503,-7 -555,2c-21,4 -31,3 -25,-2z" fill="#ffffff" id="svg_58"/>
   <path d="m2992,-7342c-23,-11 -65,-22 -93,-25c-43,-5 -53,-3 -70,16c-17,18 -59,30 -59,16c0,-20 66,-177 91,-216c33,-52 103,-109 165,-135c38,-16 97,-15 138,1c16,7 17,5 7,-12c-22,-43 -94,-48 -184,-14c-22,9 -33,5 -74,-23c-37,-25 -63,-58 -113,-139c-94,-154 -178,-271 -290,-400c-95,-109 -129,-137 -170,-137c-25,0 -25,-14 1,-56c12,-20 26,-31 32,-27c42,23 215,148 299,215c235,187 577,503 618,570c44,72 12,152 -94,237c-39,31 -91,77 -116,102l-45,46l-43,-19z" fill="#ffffff" id="svg_59"/>
   <path d="m6640,-7345c-19,-10 -36,-39 -62,-103l-35,-90l70,-11c137,-23 314,-94 473,-192c60,-37 86,-59 92,-78c14,-49 7,-204 -12,-271c-32,-114 -32,-113 -5,-105c69,21 121,111 140,240c18,124 17,132 -24,216c-40,83 -60,99 -154,120c-68,14 -91,33 -148,122c-65,98 -82,116 -140,143c-58,27 -154,32 -195,9z" fill="#ffffff" id="svg_60"/>
   <path d="m11133,-7419c-72,-48 -161,-111 -198,-140c-78,-59 -75,-60 70,-36c138,23 132,21 139,59c6,31 53,110 106,179c12,15 20,27 18,27c-3,0 -63,-40 -135,-89z" fill="#ffffff" id="svg_61"/>
   <path d="m3825,-7361c-16,-11 -60,-36 -97,-55c-59,-30 -68,-38 -68,-62c1,-57 23,-122 95,-272c77,-164 105,-257 126,-419l12,-94l70,6c38,3 71,8 73,10c6,5 -35,278 -46,311c-6,16 -10,45 -10,65c0,20 -6,70 -14,111c-8,41 -22,143 -31,225c-23,196 -39,221 -110,174z" fill="#ffffff" id="svg_62"/>
   <path d="m10787,-7479c-38,-26 -120,-76 -183,-110c-63,-35 -114,-65 -112,-66c2,-2 195,19 326,35c1,0 0,11 -4,25c-9,37 3,88 31,129c13,20 21,35 17,35c-4,-1 -38,-22 -75,-48z" fill="#ffffff" id="svg_63"/>
   <path d="m9075,-7486c-104,-24 -198,-44 -209,-44c-63,0 103,-54 232,-75c36,-6 42,-4 42,11c0,30 75,90 149,119c39,16 71,30 71,32c0,13 -125,-5 -285,-43z" fill="#ffffff" id="svg_64"/>
   <path d="m3560,-7487c-35,-13 -65,-25 -67,-26c-1,-2 3,-19 9,-39c7,-23 7,-45 1,-64c-9,-26 -3,-37 63,-126c129,-173 194,-342 180,-465l-6,-53l65,0l66,0l-5,33c-3,17 -8,57 -11,87c-11,106 -54,249 -104,348c-70,140 -100,218 -108,279c-3,29 -9,52 -12,52c-3,-1 -35,-12 -71,-26z" fill="#ffffff" id="svg_65"/>
   <path d="m10010,-7491c-91,-42 -320,-172 -320,-181c0,-5 70,-8 155,-8l155,0l-17,34c-22,46 -7,82 59,141c28,25 46,45 42,45c-5,0 -38,-14 -74,-31z" fill="#ffffff" id="svg_66"/>
   <path d="m10519,-7470c-9,-5 -85,-36 -170,-68c-151,-58 -299,-126 -299,-138c0,-7 253,3 333,12l47,6l0,41c0,36 6,47 58,99c57,56 64,67 31,48z" fill="#ffffff" id="svg_67"/>
   <path d="m5960,-7490c0,-4 33,-38 73,-77c141,-137 256,-179 547,-203c187,-15 300,-34 347,-58c40,-21 40,-22 47,-89c9,-91 24,-148 53,-206c21,-42 64,-79 78,-66c8,9 35,181 35,226c0,82 -19,130 -67,172c-87,78 -252,147 -485,207c-107,27 -628,105 -628,94z" fill="#ffffff" id="svg_68"/>
   <path d="m9603,-7510c-61,-16 -169,-48 -240,-71c-150,-49 -148,-51 49,-72l128,-13l25,38c22,33 90,90 161,135c31,19 0,15 -123,-17z" fill="#ffffff" id="svg_69"/>
   <path d="m6888,-8003c-26,-26 -50,-58 -52,-70c-2,-12 -12,-57 -22,-101c-11,-53 -14,-87 -8,-104c13,-36 32,-39 36,-5c2,18 12,32 29,40c41,20 59,47 71,104c12,61 13,154 1,172c-6,8 -23,-3 -55,-36z" fill="#ffffff" id="svg_70"/>
   <path d="m6956,-8199c-34,-87 -89,-172 -149,-230c-45,-43 -47,-44 -83,-33c-44,13 -77,3 -100,-33c-9,-14 -45,-48 -80,-76c-34,-27 -72,-65 -83,-83c-20,-32 -28,-86 -15,-99c4,-3 28,12 54,34l48,40l62,-12c56,-11 64,-10 88,8c18,14 28,31 30,54c2,28 19,50 101,129c70,68 114,122 155,189c62,101 62,100 17,159l-17,24l-28,-71z" fill="#ffffff" id="svg_71"/>
   <path d="m7245,-8176l-40,-41l3,-113c4,-114 -8,-192 -33,-220c-16,-19 -65,-141 -65,-163c0,-23 39,-47 77,-47l33,0l-20,-40c-11,-22 -18,-40 -14,-40c23,0 77,38 95,66c48,78 73,219 47,267c-6,12 -12,53 -14,92c-3,90 -20,274 -25,278c-2,1 -22,-16 -44,-39z" fill="#ffffff" id="svg_72"/>
   <path d="m5695,-8191c-22,-22 -64,-51 -94,-66c-132,-62 -197,-125 -190,-185c2,-12 -7,-43 -20,-67c-27,-52 -23,-97 14,-131l25,-23l0,27c0,20 12,41 40,68c28,28 42,52 46,80c6,32 14,43 43,59c52,28 134,89 151,113c34,46 50,125 32,153c-6,9 -19,1 -47,-28z" fill="#ffffff" id="svg_73"/>
   <path d="m7014,-8329c-72,-129 -127,-201 -155,-201c-34,0 -58,-19 -80,-63c-46,-88 -65,-231 -35,-256c11,-9 15,-6 21,16c14,60 31,73 93,73c104,0 155,48 167,159c9,76 29,147 70,239c18,42 36,89 40,103c6,24 4,27 -28,31c-35,4 -35,4 -93,-101z" fill="#ffffff" id="svg_74"/>
   <path d="m7150,-8277c-6,-27 -25,-79 -42,-118c-37,-82 -58,-157 -58,-203c0,-29 2,-32 19,-22c11,5 29,10 40,10c16,0 21,6 21,25c0,14 9,38 20,53c27,38 39,102 40,210c0,72 -3,92 -14,92c-8,0 -19,-20 -26,-47z" fill="#ffffff" id="svg_75"/>
   <path d="m5170,-8296c-71,-45 -199,-94 -277,-107c-64,-10 -125,-3 -190,24c-31,13 -33,12 -87,-39c-30,-29 -77,-62 -103,-73c-97,-41 -163,-105 -163,-158c0,-20 3,-19 48,13c26,19 90,54 142,78c52,25 117,59 144,76c56,36 100,41 144,15c28,-16 35,-16 128,0c80,14 122,29 219,76c66,33 142,67 169,77l49,18l-79,17c-43,10 -81,18 -84,17c-3,0 -30,-15 -60,-34z" fill="#ffffff" id="svg_76"/>
   <path d="m3953,-8277l-53,-4l-25,-53c-14,-29 -25,-57 -25,-63c0,-5 -9,-19 -21,-31c-17,-19 -27,-22 -67,-17c-55,7 -60,4 -96,-52c-18,-29 -42,-51 -79,-69c-28,-14 -60,-34 -71,-43c-20,-17 -50,-70 -44,-77c3,-2 23,4 46,13c34,13 47,14 68,5c34,-16 94,-15 179,3c38,8 90,15 114,15c49,0 101,27 119,62c12,24 31,144 39,256c4,56 3,62 -14,60c-10,-1 -42,-3 -70,-5z" fill="#ffffff" id="svg_77"/>
   <path d="m3685,-8337c-27,-31 -77,-74 -109,-95c-50,-32 -67,-38 -114,-38c-31,0 -71,5 -89,12c-23,9 -42,9 -61,2c-19,-7 -38,-6 -62,2c-38,13 -58,7 -98,-29c-12,-12 -55,-37 -95,-57c-48,-23 -79,-46 -94,-69c-13,-19 -22,-36 -20,-37c11,-11 88,24 116,53c59,59 81,66 246,73c204,10 326,33 368,71c24,22 41,29 74,29c36,0 46,5 72,37c17,20 35,49 40,64c9,26 8,27 -36,33c-78,10 -86,8 -138,-51z" fill="#ffffff" id="svg_78"/>
   <path d="m5340,-8339c-64,-26 -146,-65 -183,-85c-45,-25 -97,-44 -159,-57c-111,-22 -156,-23 -182,-4c-31,23 -66,18 -130,-21c-32,-19 -81,-46 -108,-60c-28,-14 -70,-44 -94,-66c-46,-42 -60,-70 -22,-44c31,22 64,20 99,-7c42,-30 155,-31 214,-1c32,17 46,19 70,12c37,-12 251,-20 320,-12c44,5 56,12 99,58c93,97 123,146 129,205c5,56 14,69 77,113c48,33 -9,19 -130,-31z" fill="#ffffff" id="svg_79"/>
   <path d="m1803,-8444c-29,-26 -53,-36 -102,-44c-67,-12 -114,-40 -150,-91c-25,-35 -42,-77 -34,-85c10,-9 74,35 118,80c30,32 55,46 100,59c33,10 74,28 92,41c39,30 53,30 89,2c28,-22 34,-23 219,-20c104,2 191,5 193,7c2,1 -7,19 -19,39c-24,42 -37,44 -119,16c-79,-27 -228,-22 -286,9c-51,28 -57,27 -101,-13z" fill="#ffffff" id="svg_80"/>
   <path d="m1847,-8504c-14,-15 -43,-30 -71,-36c-53,-12 -116,-41 -134,-62c-6,-8 -16,-26 -22,-42l-10,-28l34,21l34,21l14,-21c12,-18 29,-23 117,-32c86,-8 108,-7 134,5c25,12 78,16 232,17c110,1 220,7 244,12c77,17 104,41 59,53c-13,3 -48,22 -78,42l-55,36l-195,-6c-147,-5 -200,-3 -216,7c-12,6 -31,18 -43,25c-19,11 -24,10 -44,-12z" fill="#ffffff" id="svg_81"/>
   <path d="m3520,-8520c-52,-10 -144,-19 -205,-19c-60,-1 -127,-6 -148,-12c-42,-11 -123,-78 -110,-90c18,-17 70,-20 82,-5c11,13 15,13 26,2c18,-18 112,-29 172,-21c71,10 108,23 129,46c11,12 52,39 92,61c39,22 72,44 72,49c0,5 -3,8 -7,8c-5,-1 -51,-10 -103,-19z" fill="#ffffff" id="svg_82"/>
  </g>
 </g>
</svg>