<?xml version="1.0"?>
<svg width="1274" height="1280" xmlns="http://www.w3.org/2000/svg" xmlns:svg="http://www.w3.org/2000/svg" preserveAspectRatio="xMidYMid meet" version="1.0">
 <metadata>Created by potrace 1.15, written by Peter Selinger 2001-2017</metadata>
 <g class="layer">
  <title>Layer 1</title>
  <g fill="#000000" id="svg_1" transform="matrix(0.1 0 0 -0.1 0 0)">
   <path d="m6070,-82c60,-114 71,-162 77,-354c9,-273 -22,-446 -112,-629c-85,-171 -184,-279 -490,-534c-304,-254 -468,-429 -541,-577c-25,-50 -29,-71 -28,-134c1,-90 22,-158 104,-325c48,-99 59,-132 64,-190c16,-172 16,-175 36,-175c14,0 21,10 25,38c40,231 64,294 131,348c105,85 152,136 175,187c26,61 30,137 10,186l-15,35l-13,-79c-7,-43 -21,-96 -32,-119c-18,-43 -108,-140 -174,-189c-20,-15 -50,-51 -67,-80c-24,-43 -30,-48 -36,-32c-22,69 -40,105 -88,175c-82,119 -86,185 -18,314c43,82 162,209 237,252c97,56 193,59 299,11c96,-44 134,-91 177,-215c39,-113 36,-150 -31,-482c-77,-377 -81,-447 -33,-583c35,-99 81,-181 136,-241l37,-41l-25,58c-27,64 -50,166 -59,267l-6,65l22,-30c55,-76 156,-163 230,-199c149,-71 302,-72 514,-1c182,60 320,138 715,398c243,161 282,199 383,379c38,68 89,151 112,185c78,110 212,215 339,264c134,52 202,59 930,89c273,12 549,32 675,50c237,34 459,32 530,-5l32,-16l-96,-72c-52,-39 -94,-72 -93,-73c1,-2 64,2 140,9c275,22 475,-20 745,-157c134,-68 135,-68 -113,-62c-121,3 -215,3 -210,1c23,-10 272,-56 428,-79c132,-20 179,-31 218,-52c103,-57 104,-56 -252,-49c-178,4 -322,5 -319,2c3,-2 77,-10 165,-16c245,-18 568,-51 584,-60c18,-11 -60,-40 -185,-71c-91,-22 -93,-22 -220,-6c-275,34 -342,29 -111,-9c166,-27 146,-37 -111,-56c-296,-21 -518,11 -787,116c-17,7 -17,5 5,-19c41,-45 162,-115 303,-174c128,-54 135,-56 222,-55c50,0 126,6 170,12c390,57 654,111 1135,231c250,62 801,209 807,214c2,2 -104,8 -235,15c-434,22 -717,55 -1007,117c-206,43 -338,85 -610,194c-289,115 -465,169 -660,202c-13,2 60,57 230,173c468,319 664,479 833,679c125,150 212,294 258,429c22,66 23,68 4,63c-11,-4 -28,-8 -37,-11c-11,-3 -33,-37 -52,-81c-80,-177 -244,-383 -405,-508c-350,-271 -842,-509 -1266,-611c-227,-54 -364,-69 -650,-70c-268,0 -358,8 -615,52c-49,8 -127,16 -172,16c-76,1 -87,-2 -156,-37c-143,-72 -276,-195 -422,-388c-40,-53 -76,-94 -79,-91c-3,4 -6,25 -6,48c0,183 -101,335 -287,434l-22,11l25,-55c13,-31 38,-82 54,-115c46,-92 60,-159 60,-295c0,-121 -20,-288 -38,-321c-17,-32 -393,-396 -461,-447c-36,-27 -94,-66 -131,-87c-256,-149 -647,-222 -800,-148c-25,12 -70,47 -102,78c-77,75 -83,100 -83,330c0,150 5,213 25,335c14,86 25,191 25,245c0,85 -3,101 -30,155c-66,132 -220,243 -390,280l-76,17l121,59c174,84 277,155 403,277c286,278 360,452 359,842c0,207 -34,342 -117,468c-35,52 -151,172 -166,172c-5,0 9,-33 31,-72z" fill="#ffffff" id="svg_2"/>
   <path d="m5376,-647c51,-217 53,-345 7,-502c-34,-120 -97,-239 -227,-429c-110,-161 -153,-236 -203,-352l-24,-55l4,85c7,147 -7,223 -57,325c-83,168 -152,221 -286,218c-96,-1 -123,-12 -157,-64c-36,-54 -36,-107 -3,-173l25,-49l5,84c7,98 19,125 66,145c30,13 38,13 64,-1c58,-30 115,-133 143,-260c21,-93 33,-184 56,-405c34,-322 65,-423 144,-474c32,-22 32,-22 7,74c-13,49 -20,108 -20,170c0,186 74,327 275,525c168,165 228,265 277,462c20,77 23,115 23,303l0,215l-58,116c-77,156 -90,165 -61,42z" fill="#ffffff" id="svg_3"/>
   <path d="m319,-1068c247,-298 517,-583 799,-843c153,-141 203,-181 240,-193c54,-18 212,-49 218,-43c3,2 -99,104 -225,226c-245,237 -436,438 -386,407c17,-10 111,-76 210,-146c249,-175 365,-252 365,-242c0,5 -73,77 -162,160c-172,159 -256,242 -246,242c4,0 89,-44 190,-99c101,-54 213,-113 248,-130l65,-32l-50,48c-28,26 -88,82 -134,123c-46,40 -79,76 -73,78c11,3 254,-50 647,-142c127,-30 231,-53 233,-51c2,2 -26,24 -61,49c-133,95 -274,142 -662,221c-148,30 -306,64 -350,76c-209,53 -433,143 -745,297c-107,54 -198,99 -204,101c-5,2 33,-46 83,-107z" fill="#ffffff" id="svg_4"/>
   <path d="m2310,-1326c0,-43 49,-214 83,-287c87,-188 203,-310 381,-399c109,-55 205,-89 450,-159c322,-93 468,-154 637,-270c157,-108 170,-124 315,-409c146,-284 257,-490 262,-485c2,2 -8,42 -22,88c-14,47 -26,88 -26,92c0,4 21,-14 48,-40c92,-92 229,-165 308,-165c32,0 36,6 105,120c40,66 69,123 66,126c-3,3 -36,-10 -74,-29l-68,-35l-106,8c-121,8 -128,11 -206,100c-157,181 -231,365 -318,789c-14,69 -27,126 -29,128c-4,4 -30,-102 -46,-192c-6,-33 -13,-65 -15,-71c-2,-7 -48,32 -102,85c-157,155 -239,186 -553,215c-258,23 -367,51 -486,122c-213,128 -423,354 -556,601c-28,52 -48,79 -48,67z" fill="#ffffff" id="svg_5"/>
   <path d="m2280,-2087c-14,-3 -113,-27 -220,-53c-324,-82 -351,-85 -640,-84c-200,1 -281,5 -378,20c-67,11 -122,18 -122,16c0,-2 38,-40 83,-83c251,-236 430,-355 741,-491c455,-200 496,-213 676,-206c93,4 132,11 200,34l85,29l-225,6c-235,6 -312,17 -446,63c-80,27 -201,86 -262,128c-59,40 -164,129 -159,134c2,2 68,-19 147,-46c78,-28 145,-48 148,-45c3,2 -75,44 -172,91c-112,55 -183,96 -193,111c-9,13 -13,26 -10,29c3,3 85,-13 183,-35c99,-23 190,-43 204,-46c32,-6 -81,53 -225,117c-124,56 -144,69 -94,63c179,-24 381,-46 399,-43c15,2 -16,17 -86,42c-60,21 -113,42 -117,46c-23,20 352,54 508,46c209,-10 321,-47 435,-141l55,-45l8,39c12,60 -7,112 -62,173c-87,95 -200,139 -351,137c-47,-1 -96,-4 -110,-6z" fill="#ffffff" id="svg_6"/>
   <path d="m5283,-2270c-38,-16 -56,-55 -49,-107c3,-26 10,-51 15,-56c12,-12 48,45 62,98c5,22 12,48 15,58c6,19 -8,21 -43,7z" fill="#ffffff" id="svg_7"/>
   <path d="m9061,-2359c-19,-12 39,-45 214,-121c311,-136 461,-225 563,-335c65,-69 90,-105 73,-105c-6,0 -95,38 -197,85c-103,47 -189,83 -191,81c-2,-2 52,-36 119,-76c206,-122 338,-204 338,-211c0,-4 -22,-10 -49,-14c-46,-6 -59,-2 -232,75c-201,89 -279,122 -279,116c0,-4 107,-68 278,-167c50,-29 92,-56 92,-60c0,-3 -17,-9 -37,-13c-85,-14 -105,-8 -233,65c-143,81 -241,132 -245,127c-1,-2 63,-48 143,-103c80,-55 147,-105 149,-111c2,-6 -19,-23 -46,-37l-49,-27l-115,69c-63,38 -125,74 -138,80c-24,12 -24,11 0,-6c14,-10 56,-40 94,-66c38,-27 65,-52 61,-57c-15,-13 -102,-30 -121,-23c-10,3 -63,38 -118,78c-147,106 -262,181 -246,161c8,-9 65,-60 128,-113c62,-53 112,-97 110,-100c-7,-6 -140,38 -192,64c-27,14 -97,55 -155,91c-202,126 -193,123 -120,48c72,-74 67,-79 -34,-42c-98,35 -164,79 -289,192c-61,56 -114,100 -116,98c-10,-10 123,-189 194,-260c127,-127 261,-196 445,-228c344,-59 616,-66 985,-23c305,35 486,47 745,47l215,1l-90,41c-268,124 -749,374 -950,494c-245,146 -409,230 -515,262c-80,24 -170,35 -189,23z" fill="#ffffff" id="svg_8"/>
   <path d="m7846,-2831c-110,-26 -242,-114 -446,-299c-311,-281 -450,-376 -634,-435c-66,-22 -67,-23 -35,-28c19,-4 77,-9 129,-13l96,-6l112,106c246,232 399,317 574,319c53,1 92,-3 99,-10c8,-8 -8,-31 -61,-87c-134,-141 -256,-228 -402,-288c-88,-36 -86,-51 7,-51c82,0 145,36 271,154c61,57 133,116 160,131c67,36 150,51 230,42c63,-6 66,-6 56,12c-46,84 -138,144 -254,166c-38,7 -68,16 -68,21c0,4 9,25 20,46c27,53 102,118 203,174c48,27 87,51 87,53c0,7 -104,2 -144,-7z" fill="#ffffff" id="svg_9"/>
   <path d="m1980,-3040c-63,-13 -154,-60 -236,-121c-63,-47 -464,-445 -464,-460c0,-11 185,-24 325,-23c165,1 292,24 470,83c162,53 157,56 -72,44c-79,-5 -143,-5 -143,-2c0,3 47,27 105,54c58,26 104,50 102,52c-2,1 -72,-13 -156,-33c-84,-19 -162,-34 -173,-32c-12,2 26,28 110,76c71,40 138,79 148,87c26,20 -9,8 -240,-84c-98,-39 -183,-71 -188,-71c-12,0 41,74 99,136c129,140 253,215 422,257c52,13 90,26 84,30c-19,12 -147,16 -193,7z" fill="#ffffff" id="svg_10"/>
   <path d="m2722,-3090c-129,-19 -309,-200 -479,-482c-105,-173 -387,-788 -369,-805c6,-6 297,89 484,158c167,63 350,144 449,201c143,81 295,246 368,399c32,68 72,215 61,226c-2,2 -32,-49 -65,-114c-100,-194 -196,-303 -305,-348l-38,-16l7,28c3,15 31,88 61,162c30,73 53,135 51,137c-3,3 -73,-113 -190,-313c-19,-31 -43,-58 -62,-67c-45,-22 -126,-56 -132,-56c-2,0 10,17 27,38c17,20 59,71 93,112c75,90 68,87 -163,-88c-209,-159 -198,-151 -184,-132c6,8 49,62 95,120c47,58 98,123 114,145c27,37 28,38 5,20c-14,-11 -87,-78 -163,-150c-76,-71 -142,-131 -147,-133c-4,-2 -11,15 -15,37c-8,48 -3,56 170,266c58,72 111,139 117,150c11,22 6,17 -151,-128c-122,-113 -125,-113 -90,-1c49,160 110,273 201,369c73,79 156,135 307,209c62,30 116,58 119,61c8,7 -113,4 -176,-5z" fill="#ffffff" id="svg_11"/>
   <path d="m3710,-3254c-235,-184 -384,-504 -443,-954l-14,-103l26,6c14,4 53,18 86,33c220,97 392,244 530,452c36,53 65,101 65,105c0,5 -62,-54 -137,-131c-122,-123 -264,-236 -278,-222c-3,3 26,50 64,105c108,157 102,158 -46,5c-76,-78 -142,-143 -147,-142c-5,0 -6,18 -3,40c4,30 18,56 54,96c151,175 259,322 251,345c-7,21 -101,-57 -183,-152c-47,-54 -91,-99 -97,-99c-21,0 1,113 37,187c41,87 71,132 159,238c59,70 145,219 134,230c-2,2 -28,-15 -58,-39z" fill="#ffffff" id="svg_12"/>
   <path d="m4936,-3363c-145,-320 -181,-444 -173,-592c7,-110 45,-297 61,-292c6,2 50,61 98,132c59,86 97,154 116,209c34,94 73,226 66,226c-3,0 -52,-73 -110,-162c-59,-90 -111,-167 -116,-173c-7,-7 -8,8 -4,45c11,90 42,213 108,423l61,198l-12,69c-7,39 -16,70 -19,70c-4,0 -38,-69 -76,-153z" fill="#ffffff" id="svg_13"/>
   <path d="m8211,-3287c18,-32 69,-112 112,-178c139,-211 191,-328 264,-600c3,-13 -18,2 -58,40c-35,34 -74,69 -87,80l-22,18l16,-39c9,-21 36,-73 60,-114c80,-139 97,-185 89,-240c-4,-28 -10,-50 -13,-50c-4,0 -29,42 -56,93c-92,176 -128,238 -133,233c-3,-2 23,-90 58,-195c35,-104 60,-193 57,-196c-8,-8 -66,21 -96,48c-13,12 -41,60 -63,107c-48,103 -109,213 -115,207c-2,-2 16,-70 41,-151c49,-162 52,-176 31,-176c-66,0 -73,8 -159,156c-45,79 -85,144 -89,144c-4,0 11,-53 33,-117c21,-64 39,-118 39,-119c0,-1 -29,14 -65,33c-101,54 -137,109 -169,266c-8,38 -16,71 -18,73c-2,2 -2,-27 0,-64l4,-67l-37,35c-53,49 -73,102 -87,221c-6,57 -14,108 -18,112c-12,14 -19,-142 -9,-204c17,-108 65,-194 185,-335c63,-74 64,-77 64,-134c0,-92 -7,-99 -46,-42c-22,33 -48,57 -76,70c-41,20 -118,39 -118,30c0,-3 22,-42 49,-86c27,-45 63,-119 79,-165c32,-88 66,-236 60,-265c-2,-10 -27,24 -62,86c-32,57 -60,102 -62,100c-2,-2 17,-82 42,-177c25,-95 43,-175 40,-178c-9,-10 -102,86 -134,140c-28,47 -107,214 -158,336c-24,56 -25,30 -2,-50c38,-134 128,-328 225,-482l24,-39l-23,7c-13,4 -55,21 -95,37l-72,30l-29,76c-17,42 -45,118 -63,169c-18,51 -35,91 -37,88c-5,-4 16,-167 25,-199c5,-16 1,-18 -23,-12c-60,15 -71,30 -94,131c-12,52 -25,97 -30,100c-4,2 -10,-14 -14,-36c-6,-40 -7,-41 -29,-27c-35,23 -94,114 -121,187c-26,69 -55,181 -76,291c-17,95 -21,101 -36,55c-7,-22 -13,-85 -13,-140c-1,-162 34,-263 142,-408c77,-103 368,-395 510,-513c130,-107 287,-224 300,-224c5,0 6,130 2,332l-8,333l79,-72c44,-39 144,-132 224,-207c140,-130 145,-134 152,-108c4,14 19,121 33,236c33,274 31,266 61,266c40,0 122,-36 182,-81c31,-24 118,-102 192,-175l135,-133l-90,182c-103,207 -151,342 -195,542c-60,276 -83,371 -107,435c-70,186 -227,438 -369,592c-55,59 -144,138 -156,138c-5,0 5,-26 23,-57zm68,-1271c106,-59 196,-112 198,-119c6,-16 -33,-213 -51,-256l-13,-32l-58,117c-33,65 -60,116 -61,115c-1,-1 6,-40 17,-87c10,-47 19,-95 19,-108c0,-22 -1,-22 -37,-7c-21,9 -42,21 -48,26c-5,5 -31,74 -58,152l-47,142l6,-98l5,-97l-35,17c-19,9 -38,23 -40,30c-3,8 -8,71 -11,141c-3,70 -8,140 -10,156c-6,36 -14,40 224,-92z" fill="#ffffff" id="svg_14"/>
   <path d="m9736,-3279c-8,-12 51,-64 174,-151c58,-41 137,-108 178,-149c115,-116 252,-337 377,-605l45,-98l-57,49c-60,51 -117,93 -127,93c-3,0 14,-28 38,-62c63,-92 138,-223 212,-369c58,-117 71,-153 40,-115c-113,138 -300,355 -304,352c-4,-5 103,-162 261,-380c48,-66 85,-121 83,-124c-3,-2 -32,9 -66,24c-57,26 -70,38 -177,173c-115,144 -310,371 -319,371c-8,0 9,-27 135,-218c66,-100 128,-196 136,-212c15,-30 15,-30 -12,-30c-16,0 -45,5 -65,10c-42,12 -34,4 -248,273c-188,236 -191,236 -40,2c53,-82 102,-160 109,-173c11,-21 11,-23 -6,-14c-10,6 -63,48 -118,94c-141,117 -185,151 -191,145c-7,-7 51,-121 98,-189c87,-130 175,-193 483,-348c261,-132 675,-308 675,-287c0,3 -30,68 -66,144c-147,310 -216,481 -303,759c-71,225 -101,292 -187,422c-98,147 -197,264 -317,378c-98,93 -247,203 -312,229c-38,17 -121,20 -129,6z" fill="#ffffff" id="svg_15"/>
   <path d="m9078,-3377c-27,-7 -22,-17 30,-53c72,-52 150,-129 198,-196c41,-57 104,-181 119,-233c7,-23 5,-22 -41,9c-27,19 -66,47 -86,63c-21,16 -38,25 -38,22c0,-4 41,-62 91,-128l91,-120l-7,-51c-11,-87 -15,-86 -100,28c-43,59 -80,104 -82,102c-2,-2 25,-66 61,-142c36,-75 66,-141 66,-146c0,-4 -13,-8 -28,-8c-25,0 -37,13 -92,93c-100,144 -192,268 -196,264c-3,-2 13,-52 35,-111c21,-58 36,-106 34,-106c-3,0 -33,15 -67,32c-77,41 -227,189 -282,277l-39,65l-3,-43c-9,-116 103,-232 454,-469c228,-154 286,-197 458,-340c42,-35 76,-57 76,-50c0,26 -62,316 -95,448c-88,348 -174,545 -295,674c-91,96 -185,139 -262,119z" fill="#ffffff" id="svg_16"/>
   <path d="m3981,-3865c-42,-61 -72,-153 -86,-263c-22,-174 -29,-282 -17,-282c18,0 159,99 217,151c62,57 126,149 179,259c39,79 31,74 -47,-34c-44,-60 -194,-204 -268,-257l-29,-20l0,53c1,89 18,198 51,311c17,60 29,110 27,112c-2,2 -14,-11 -27,-30z" fill="#ffffff" id="svg_17"/>
   <path d="m5047,-4036c-4,-7 -14,-42 -23,-80c-8,-37 -22,-83 -30,-102c-8,-19 -14,-51 -14,-71c0,-46 44,-139 103,-216c55,-72 164,-181 173,-173c5,6 -63,458 -71,466c-2,2 -11,-41 -20,-95c-10,-54 -21,-102 -25,-106c-10,-11 -38,105 -65,263c-11,69 -24,120 -28,114z" fill="#ffffff" id="svg_18"/>
   <path d="m2875,-4072c-220,-114 -380,-477 -480,-1088c-14,-85 -28,-170 -31,-187c-2,-18 -1,-33 4,-33c17,0 444,290 597,405c245,185 355,297 396,404c10,28 15,51 11,51c-4,0 -50,-43 -102,-96c-52,-53 -124,-119 -160,-148c-81,-65 -260,-190 -265,-184c-2,2 30,51 71,108c42,58 80,114 86,125c14,24 -86,-62 -167,-145c-33,-34 -80,-76 -105,-95c-49,-36 -120,-69 -120,-55c0,4 40,64 88,132c89,124 118,168 107,168c-3,0 -48,-38 -100,-86l-95,-85l0,52l0,52l117,119c64,65 113,118 109,118c-5,0 -51,-23 -103,-51c-52,-28 -97,-49 -100,-45c-8,8 24,129 56,211c32,83 78,156 152,245c109,129 116,151 34,108z" fill="#ffffff" id="svg_19"/>
   <path d="m6205,-4197c-26,-82 -51,-163 -56,-180c-9,-28 -13,-31 -29,-23c-38,20 -94,98 -146,205l-55,110l3,-75c3,-66 9,-87 50,-172c25,-53 62,-113 82,-135c39,-44 134,-100 145,-87c5,5 22,64 39,131c18,67 37,134 43,150l11,28l18,-50c61,-177 151,-283 407,-481l123,-96l0,-98c0,-305 119,-546 417,-844c109,-109 240,-222 248,-214c5,4 40,263 93,676l19,143l-55,49c-31,28 -57,48 -59,47c-1,-2 4,-41 12,-88c29,-163 16,-247 -59,-396l-43,-87l-43,179c-23,99 -45,187 -48,195c-4,8 -9,-63 -12,-158l-5,-173l-42,30c-52,38 -53,39 -80,146l-23,90l5,-75l4,-75l-23,28c-39,48 -116,182 -144,248c-21,53 -27,83 -29,174c-4,125 1,141 41,125l27,-10l-3,313c-3,289 -5,316 -24,367c-27,70 -106,232 -110,227c-2,-2 7,-37 21,-77c14,-40 24,-75 22,-76c-1,-2 -24,10 -50,27c-26,16 -47,27 -47,25c0,-2 18,-42 40,-88c49,-103 64,-175 50,-247c-11,-58 -49,-136 -61,-124c-7,8 -110,267 -124,311c-4,13 -9,21 -12,19c-2,-3 10,-89 27,-192c18,-102 30,-188 28,-191c-3,-2 -21,3 -41,11c-29,12 -38,23 -45,52c-5,21 -28,118 -52,216c-23,98 -44,177 -46,175c-2,-3 5,-71 16,-152c11,-82 20,-167 20,-190l-1,-41l-27,32c-15,18 -57,105 -92,194c-69,171 -80,177 -61,36c6,-44 9,-82 7,-84c-4,-4 -89,143 -177,304c-19,35 -37,63 -41,63c-4,0 -28,-66 -53,-147z" fill="#ffffff" id="svg_20"/>
   <path d="m4148,-4315c-66,-42 -95,-92 -127,-220c-49,-201 -52,-360 -11,-600c30,-177 19,-171 122,-69c215,213 341,434 393,692c29,142 15,136 -55,-24l-65,-149l-5,100c-3,55 -8,95 -12,89c-4,-6 -21,-61 -38,-123c-33,-123 -50,-161 -105,-236l-37,-50l7,35c3,19 15,77 26,128c12,50 19,97 17,104c-2,6 -26,-47 -52,-118c-27,-71 -56,-144 -66,-163l-17,-35l-24,60c-20,50 -23,77 -23,179c0,132 9,165 94,350c22,47 38,85 37,85c-2,0 -28,-16 -59,-35z" fill="#ffffff" id="svg_21"/>
   <path d="m5884,-4320c68,-345 31,-645 -115,-932l-21,-42l-33,110c-47,152 -100,275 -157,360c-49,74 -130,154 -136,135c-3,-9 30,-98 83,-224l14,-34l-80,-89c-97,-108 -165,-205 -218,-310c-42,-84 -98,-251 -87,-261c3,-3 78,24 168,60c89,37 163,65 165,63c2,-2 -32,-37 -77,-77c-197,-180 -316,-362 -404,-618c-29,-83 -33,-101 -19,-90c31,23 174,150 287,254c60,55 107,93 104,84c-80,-215 -111,-431 -89,-615c13,-102 46,-249 79,-343l18,-54l18,142c22,182 63,347 114,453c71,148 69,151 75,-93c8,-317 50,-523 158,-778c19,-44 24,-51 31,-35c4,10 30,125 58,254c52,239 128,562 156,658l15,53l57,-45c50,-39 189,-113 197,-104c12,13 48,223 52,308c6,119 -4,184 -44,272c-14,32 -24,60 -22,62c2,2 63,-18 134,-44c72,-26 131,-46 133,-45c6,5 -56,226 -83,300c-15,39 -42,98 -61,133c-19,34 -34,65 -34,67c0,3 47,5 104,5c57,0 124,3 149,6l46,7l-81,111c-145,199 -249,319 -371,423c-49,42 -96,92 -107,114c-11,21 -49,113 -85,204c-35,90 -71,177 -80,192c-16,28 -16,28 -11,3zm253,-599c144,-115 266,-249 314,-343l19,-38l-73,0l-74,0l-90,93c-49,50 -112,117 -139,147c-93,104 -87,91 -73,159c6,34 13,61 15,61c2,0 47,-35 101,-79zm-102,-198c75,-91 143,-190 200,-293c51,-92 138,-290 131,-297c-2,-2 -57,-1 -121,4c-135,10 -125,25 -80,-122c25,-79 29,-111 33,-252c2,-94 0,-163 -5,-163c-19,0 -101,59 -172,125c-88,81 -82,86 -106,-90c-20,-152 -57,-335 -90,-450c-34,-116 -87,-265 -96,-265c-8,0 -47,243 -90,558c-18,127 -35,232 -40,232c-4,0 -53,-68 -109,-150c-56,-83 -106,-153 -111,-156c-5,-3 -9,52 -9,129c0,140 17,264 50,378c11,36 20,69 20,73c0,3 -18,-3 -40,-14c-45,-23 -163,-53 -191,-48c-15,3 -9,17 42,93c64,97 146,186 220,241c26,19 73,66 104,105c31,39 59,69 61,66c2,-2 11,-66 20,-143c9,-76 17,-140 19,-142c5,-6 110,166 166,273c66,126 95,209 105,298c11,99 14,99 89,10zm-467,-30c40,-125 40,-124 -17,-176c-50,-44 -256,-156 -267,-144c-9,8 33,131 67,199c36,70 99,142 148,168c20,11 39,19 42,20c3,0 15,-30 27,-67z" fill="#ffffff" id="svg_22"/>
   <path d="m3547,-4437c-82,-61 -156,-242 -196,-483c-36,-215 -86,-761 -79,-869l3,-55l96,115c170,202 292,377 402,577c55,98 147,302 147,323c0,6 -30,-24 -66,-68c-120,-142 -176,-204 -181,-199c-2,2 9,47 26,100c17,53 31,102 31,109c0,6 -52,-67 -116,-163c-63,-96 -125,-184 -136,-195l-20,-20l5,66c3,51 17,95 65,205c54,124 84,208 70,194c-3,-3 -36,-54 -74,-115l-69,-110l-3,80c-5,138 32,290 112,456c24,49 41,89 37,88c-3,0 -28,-16 -54,-36z" fill="#ffffff" id="svg_23"/>
   <path d="m4659,-4541c-10,-25 -10,-41 0,-78c14,-56 102,-235 134,-275l23,-29l27,61c29,65 60,176 71,257c7,50 7,49 -43,-50c-28,-55 -58,-109 -66,-120c-16,-19 -17,-20 -30,-1c-19,25 -73,177 -81,226c-8,48 -17,50 -35,9z" fill="#ffffff" id="svg_24"/>
   <path d="m3,-5016c4,-11 13,-50 22,-87c40,-180 177,-546 329,-879c148,-327 508,-1029 699,-1363c182,-320 300,-461 524,-627c96,-71 274,-185 393,-251c227,-126 609,-219 905,-221l130,-1l145,59c535,217 855,394 1078,598c327,298 724,827 936,1245l56,110l0,131c0,73 -3,132 -7,132c-5,0 -64,-41 -133,-91c-69,-49 -132,-88 -140,-85c-8,2 -22,7 -31,10c-12,5 -53,-36 -160,-161c-662,-770 -1094,-1138 -1651,-1408c-146,-70 -357,-155 -424,-169c-29,-7 -42,3 -215,155c-283,250 -393,352 -678,634c-620,612 -936,1002 -1406,1730c-225,348 -355,544 -368,552c-5,3 -7,-3 -4,-13zm499,-901c95,-127 198,-272 228,-322c229,-380 381,-563 880,-1061c290,-290 489,-479 948,-900c111,-102 197,-186 192,-188c-13,-5 -201,26 -275,44c-207,52 -398,138 -595,270c-485,325 -609,485 -1090,1414c-126,243 -407,809 -467,940c-45,100 -33,86 179,-197zm4658,-437c-13,-62 -46,-120 -208,-365c-358,-542 -784,-1019 -1073,-1198c-101,-63 -269,-145 -429,-208c-157,-63 -515,-185 -540,-185c-15,0 -172,122 -178,138c-1,5 57,35 130,66c271,119 598,296 828,449c357,238 605,465 971,892c113,132 242,274 286,317c86,82 216,174 221,158c2,-5 -2,-34 -8,-64z" fill="#ffffff" id="svg_25"/>
   <path d="m6492,-5430c-36,-16 -42,-23 -38,-42c7,-29 66,-366 66,-373c0,-3 16,-22 35,-44c69,-76 279,-470 394,-738c203,-476 292,-895 278,-1318c-9,-259 -50,-492 -133,-755c-55,-177 -198,-520 -215,-520c-5,0 -76,-11 -157,-24c-81,-14 -197,-30 -258,-37c-154,-16 -512,-7 -624,15c-47,10 -87,19 -88,21c-2,2 42,131 98,287c401,1109 516,1593 483,2025c-7,82 -22,212 -34,291c-22,139 -24,143 -45,138c-15,-4 -55,9 -114,36c-53,24 -94,37 -99,32c-5,-5 -59,-209 -121,-454c-63,-245 -115,-447 -117,-449c-2,-3 -19,3 -38,12c-62,30 -65,27 -65,-66c0,-326 -88,-740 -327,-1545l-66,-222l-44,0c-129,0 -274,55 -499,188c-67,40 -125,72 -128,72c-13,0 59,-92 124,-159c129,-133 268,-220 443,-277c93,-30 102,-35 99,-56c-6,-43 -130,-402 -205,-593c-153,-390 -262,-615 -387,-804c-314,-475 -929,-1266 -1495,-1924c-36,-42 -64,-77 -61,-77c3,0 54,39 115,88c400,320 875,825 1246,1322c322,432 720,1102 1075,1810c48,95 65,121 78,117c9,-2 91,-27 182,-55c261,-80 527,-128 811,-147l95,-7l85,44c187,97 400,257 574,432c220,221 339,421 392,660c23,106 21,340 -6,491c-99,557 -395,1263 -843,2010c-175,290 -390,615 -408,614c-8,0 -34,-9 -58,-19zm145,-222c142,-210 326,-535 496,-875c347,-692 535,-1233 554,-1587c16,-309 -106,-567 -381,-807c-80,-70 -201,-148 -212,-136c-2,2 9,34 25,70c104,231 176,494 212,777c16,121 16,487 0,609c-34,269 -194,736 -425,1244c-117,257 -173,364 -237,453c-33,45 -66,101 -74,125c-13,38 -45,204 -45,231c0,19 20,-5 87,-104zm-491,-950l27,-33l-7,-230c-21,-692 -104,-1195 -297,-1790c-54,-167 -192,-541 -203,-553c-5,-4 -37,2 -183,34c-64,14 -73,19 -73,38c0,22 16,81 125,446c123,414 208,824 250,1204c6,56 8,59 45,73l38,15l102,357c56,196 110,382 118,414c9,31 19,57 23,57c4,0 20,-15 35,-32zm1401,-2286c-168,-244 -405,-469 -654,-618c-57,-34 -125,-70 -152,-79c-48,-16 -55,-15 -218,14c-630,112 -1024,204 -1323,309c-75,26 -231,95 -226,99c2,2 84,-16 182,-41c515,-128 838,-173 1183,-163c209,6 313,22 471,72c207,66 482,232 710,428c36,30 67,53 69,51c3,-2 -16,-34 -42,-72zm-2064,-537c56,-6 58,-8 53,-31c-13,-48 -108,-261 -175,-389c-114,-218 -359,-630 -369,-621c-2,2 48,129 111,283c151,369 168,414 216,580c56,195 56,194 83,189c13,-3 49,-8 81,-11z" fill="#ffffff" id="svg_26"/>
  </g>
 </g>
</svg>